<svg xmlns="http://www.w3.org/2000/svg" viewBox="0 0 21 21"><defs><style>.a{fill:#ff743d;}</style></defs><title>Build</title><path class="a" d="M9.75,16.88A1.22,1.22,0,0,1,11,16.53a4.39,4.39,0,0,0,.44-2.29,1.2,1.2,0,0,1-1.06-.66,1.24,1.24,0,0,1,.38-1.33,4.21,4.21,0,0,0-1.61-1.49L9,10.69a1.19,1.19,0,0,1-1.14.65,1.26,1.26,0,0,1-1-1.1A4.4,4.4,0,0,0,4.65,11a1.24,1.24,0,0,1,.06,1.41,1.31,1.31,0,0,1-1.52.28,4.35,4.35,0,0,0-.43,2.36A1.24,1.24,0,0,1,4,15.71a1.26,1.26,0,0,1-.48,1.42,4.29,4.29,0,0,0,1.5,1.33l.34.17a1.23,1.23,0,0,1,1.16-.69,1.26,1.26,0,0,1,1,1,4.54,4.54,0,0,0,2.19-.84A1.17,1.17,0,0,1,9.75,16.88ZM6.34,16.1a1.7,1.7,0,0,1-.69-2.31,1.7,1.7,0,1,1,.69,2.31Z"/><polygon class="a" points="13.25 3.62 9.09 2.03 9.79 6.43 13.25 3.62"/><path class="a" d="M10.67,3a7.57,7.57,0,0,0-7.55,7.57,7.3,7.3,0,0,0,.06.94l2.3-1.79A5.27,5.27,0,0,1,9.82,5.37Z"/><path class="a" d="M14.52,4.05,13.38,6a5.27,5.27,0,0,1-1.18,9.59l-.85,2.48A7.56,7.56,0,0,0,14.52,4.05Z"/></svg>