<svg xmlns="http://www.w3.org/2000/svg" viewBox="0 0 22.3 24.34"><defs><style>.a{fill:#f15a24;}</style></defs><title>Build</title><path class="a" d="M11.15,21.56A1.75,1.75,0,0,1,13,21.07a6.31,6.31,0,0,0,.63-3.3,1.7,1.7,0,0,1-1.52-.95,1.75,1.75,0,0,1,.55-1.9,6.28,6.28,0,0,0-2.32-2.16l-.21-.1a1.74,1.74,0,0,1-1.64.95A1.83,1.83,0,0,1,7.08,12a6.21,6.21,0,0,0-3.25,1.08,1.8,1.8,0,0,1,.08,2,1.87,1.87,0,0,1-2.18.4,6.24,6.24,0,0,0-.62,3.39,1.8,1.8,0,0,1,1.82.95,1.84,1.84,0,0,1-.69,2.05,6.12,6.12,0,0,0,2.15,1.91c.17.09.33.17.5.24a1.76,1.76,0,0,1,1.66-1,1.78,1.78,0,0,1,1.39,1.48,6.31,6.31,0,0,0,3.15-1.2A1.72,1.72,0,0,1,11.15,21.56Zm-4.9-1.11a2.45,2.45,0,1,1,3.32-1A2.45,2.45,0,0,1,6.25,20.45Z" transform="translate(-1.08 -0.22)"/><polygon class="a" points="15.11 2.28 9.12 0 10.14 6.32 15.11 2.28"/><path class="a" d="M12.48,1.62A10.88,10.88,0,0,0,1.62,12.5a10,10,0,0,0,.09,1.35L5,11.28A7.59,7.59,0,0,1,11.25,5Z" transform="translate(-1.08 -0.22)"/><path class="a" d="M18,3.12,16.37,6a7.58,7.58,0,0,1-1.7,13.79l-1.21,3.57A10.88,10.88,0,0,0,18,3.12Z" transform="translate(-1.08 -0.22)"/></svg>