<svg xmlns="http://www.w3.org/2000/svg" xmlns:xlink="http://www.w3.org/1999/xlink" viewBox="0 0 21 21"><defs><style>.a{fill:url(#a);}</style><linearGradient id="a" x1="2.3" y1="-76.24" x2="18.69" y2="-77.96" gradientTransform="matrix(1, 0, 0, -1, 0, -66.5)" gradientUnits="userSpaceOnUse"><stop offset="0" stop-color="#06a0ce"/><stop offset="1" stop-color="#51cbbf"/></linearGradient></defs><title>gradle</title><path class="a" d="M18.09,5A2.71,2.71,0,0,0,14.34,5a.27.27,0,0,0,0,.37h0l.33.33a.26.26,0,0,0,.34,0A1.54,1.54,0,0,1,17,8c-2.14,2.14-5-3.85-11.47-.76a.88.88,0,0,0-.42,1.17l0,.06,1.11,1.92a.88.88,0,0,0,1.19.33l0,0,0,0L8,10.48A11.81,11.81,0,0,0,9.52,9.32a.27.27,0,0,1,.36,0h0a.25.25,0,0,1,0,.35l0,0a11.57,11.57,0,0,1-1.64,1.24h0l-.49.27a1.36,1.36,0,0,1-.68.18,1.4,1.4,0,0,1-1.22-.7l-1-1.81c-2,1.43-3.25,4.18-2.58,7.66a.26.26,0,0,0,.25.21H3.64a.26.26,0,0,0,.27-.24,1.75,1.75,0,0,1,3.47,0,.27.27,0,0,0,.26.23H8.8a.26.26,0,0,0,.25-.23,1.76,1.76,0,0,1,3.48,0,.25.25,0,0,0,.25.23h1.15a.26.26,0,0,0,.26-.25c0-1.63.46-3.49,1.71-4.43C20.23,8.81,19.09,6,18.09,5ZM13.68,9.92l-.83-.41h0A.52.52,0,0,1,13.37,9a.51.51,0,0,1,.52.51.53.53,0,0,1-.21.42Z"/></svg>